<?xml version="1.0" encoding="UTF-8" standalone="no"?>
<!-- Created with Inkscape (http://www.inkscape.org/) -->
<svg xmlns:dc="http://purl.org/dc/elements/1.1/" xmlns:cc="http://creativecommons.org/ns#" xmlns:rdf="http://www.w3.org/1999/02/22-rdf-syntax-ns#" xmlns:svg="http://www.w3.org/2000/svg" xmlns="http://www.w3.org/2000/svg" xmlns:sodipodi="http://sodipodi.sourceforge.net/DTD/sodipodi-0.dtd" xmlns:inkscape="http://www.inkscape.org/namespaces/inkscape" id="svg7730" version="1.1" inkscape:version="0.91 r13725" width="1946.25" height="1330" viewBox="0 0 1946.25 1330" sodipodi:docname="racoon_sil.svg">
  <metadata id="metadata7736">
    <rdf:RDF>
      <cc:Work rdf:about="">
        <dc:format>image/svg+xml</dc:format>
        <dc:type rdf:resource="http://purl.org/dc/dcmitype/StillImage"/>
        <dc:title/>
      </cc:Work>
    </rdf:RDF>
  </metadata>
  <defs id="defs7734"/>
  <sodipodi:namedview pagecolor="#ffffff" bordercolor="#666666" borderopacity="1" objecttolerance="10" gridtolerance="10" guidetolerance="10" inkscape:pageopacity="0" inkscape:pageshadow="2" inkscape:window-width="640" inkscape:window-height="480" id="namedview7732" showgrid="false" inkscape:zoom="0.23844917" inkscape:cx="1160.2156" inkscape:cy="1430.1115" inkscape:current-layer="svg7730"/>
  <path style="fill:#000000" d="m 1074.0487,1167.9697 c -0.636,-0.6072 -3.1251,-2.1824 -5.5314,-3.5004 -3.4029,-1.864 -4.6638,-3.5729 -5.6747,-7.6912 -1.5082,-6.1441 -3.2872,-7.5966 -9.3371,-7.623 -3.0471,-0.013 -4.8636,0.7444 -5.9481,2.4809 -1.1676,1.8697 -2.915,2.5 -6.9305,2.5 -4.5274,0 -6.0446,-0.7031 -9.6769,-4.4845 -2.3692,-2.4665 -6.3296,-5.5271 -8.8009,-6.8013 -3.7535,-1.9353 -4.8678,-3.5122 -6.7684,-9.578 -1.396,-4.4556 -4.0068,-9.097 -6.7568,-12.0125 -2.4649,-2.6132 -4.5066,-5.4257 -4.5371,-6.25 -0.03,-0.8243 -1.4926,-3.7487 -3.2491,-6.4987 -1.75652,-2.75 -3.95822,-7.25 -4.89273,-10 -0.93452,-2.75 -2.154,-5.6318 -2.70998,-6.4041 -0.55596,-0.7722 -0.65804,-2.3234 -0.22684,-3.4471 0.4312,-1.1237 -0.11525,-3.4155 -1.21433,-5.0929 -1.09909,-1.6775 -1.6472,-3.9649 -1.21804,-5.0833 0.42916,-1.1184 0.06,-4.2159 -0.82031,-6.8834 -1.38309,-4.1907 -1.32117,-5.2763 0.4556,-7.988 2.62721,-4.0097 2.58553,-4.4762 -0.39982,-4.4762 -3.46149,0 -5.2244,-4.0564 -4.29334,-9.8789 l 0.79361,-4.9629 -5.45963,-0.3916 -5.45961,-0.3916 -0.11538,-5.3088 c -0.0663,-3.0459 -0.99866,-6.2847 -2.1875,-7.5984 -2.57473,-2.8451 -2.61793,-5.5363 -0.16497,-10.2798 l 1.90705,-3.688 -3.89241,0 -3.89241,0 0.66571,-10.6909 c 0.53607,-8.60902 0.31412,-10.82592 -1.13969,-11.38372 -0.99297,-0.3811 -1.8054,-1.6639 -1.8054,-2.8508 0,-3.3725 -1.46381,-4.0185 -3.96872,-1.7516 -2.84357,2.5734 -4.19577,1.5043 -2.38255,-1.8837 2.09803,-3.9203 1.61199,-7.438 -1.14873,-8.3143 -2.7835,-0.8834 -3.03619,-2.3073 -1.35335,-7.62595 0.63066,-1.99321 1.48519,-6.90825 1.89894,-10.92228 0.66641,-6.4652 0.48187,-7.36899 -1.61678,-7.91779 -4.21,-1.10095 -5.55681,-5.44896 -3.33497,-10.76658 1.95137,-4.6703 1.94705,-4.68871 -1.40344,-5.96256 -2.29992,-0.87442 -4.53717,-0.86774 -7.08716,0.0213 -2.04947,0.71444 -3.92361,1.29899 -4.16477,1.29899 -1.29983,0 -0.0726,-3.14721 2.59137,-6.6459 2.67171,-3.50876 2.93027,-4.78048 2.1875,-10.7587 l -0.84234,-6.77966 -3.125,6.41853 c -1.95798,4.02157 -3.94191,6.43669 -5.3125,6.46712 -2.65705,0.059 -2.6516,0.25291 -0.19586,-6.98029 1.82217,-5.36711 1.82217,-5.96106 0,-6.9808 -1.29797,-0.72642 -1.99164,-2.83445 -1.99164,-6.05251 0,-5.06109 -0.92407,-6.01382 -3.41598,-3.52192 -0.77878,0.77879 -2.3601,1.05369 -3.51401,0.61089 -1.79992,-0.6907 -1.48404,-1.55794 2.22318,-6.10347 6.08063,-7.45569 7.51542,-16.22997 1.58181,-9.67339 -3.3755,3.72987 -5.95613,3.34437 -4.14987,-0.61993 1.17457,-2.57791 1.02768,-3.55511 -0.84553,-5.625 -1.24689,-1.37778 -3.23601,-2.50507 -4.42028,-2.50507 -1.18427,0 -2.89806,-0.8975 -3.80844,-1.99444 -1.23105,-1.48331 -2.88868,-1.7972 -6.46828,-1.2248 -3.32666,0.53196 -5.65084,0.18281 -7.52595,-1.13056 -1.4921,-1.04511 -5.35338,-1.9002 -8.58061,-1.9002 -3.29129,0 -6.07689,-0.62756 -6.34413,-1.42925 -0.34952,-1.0486 -1.15571,-1.0657 -3.02707,-0.0641 -1.40287,0.75079 -3.70918,1.06212 -5.12515,0.69183 -1.41598,-0.37029 -4.06868,0.30579 -5.8949,1.50237 -3.22676,2.11425 -3.34024,2.0998 -4.02339,-0.51258 -0.39696,-1.518 -1.70075,-2.68819 -2.99507,-2.68819 -1.26065,0 -2.83644,-0.97266 -3.50173,-2.16149 -1.13736,-2.03235 -1.36371,-2.02203 -3.78866,0.17253 -1.98639,1.79765 -2.97469,2.00563 -4.30078,0.90507 -1.32727,-1.10154 -2.45177,-0.85466 -4.90811,1.07749 -3.0867,2.428 -7.16705,3.37724 -7.16705,1.66732 0,-0.46148 0.87566,-1.80666 1.94591,-2.98927 1.44495,-1.59666 1.68155,-3.1704 0.91903,-6.11306 l -1.02688,-3.96287 -4.98153,3.80458 c -2.73984,2.09251 -6.48448,5.01676 -8.32143,6.49832 -1.8392,1.48339 -4.20955,2.36004 -5.27537,1.95104 -1.64494,-0.63121 -1.3785,-1.86534 1.77477,-8.2208 2.04064,-4.11295 4.27394,-7.82645 4.96288,-8.25224 0.68895,-0.4258 1.25262,-1.35073 1.25262,-2.05543 0,-2.82854 -10.27097,7.09673 -15.1483,14.63845 -2.8599,4.4222 -5.46371,8.04036 -5.78626,8.04036 -0.61995,0 0.33732,-4.45448 1.78827,-8.32138 0.73259,-1.95242 0.57012,-2.06471 -1.06572,-0.73658 -2.95661,2.40047 -9.75044,0.56948 -11.10483,-2.99284 -1.39442,-3.66763 -2.857,-3.73421 -5.17983,-0.23584 -2.04174,3.07503 -4.75333,2.19816 -4.75333,-1.53714 0,-3.52457 -3.34074,-2.97701 -4.2633,0.69878 -0.43139,1.71875 -1.66782,3.125 -2.74765,3.125 -1.07982,0 -3.02642,1.26562 -4.32579,2.8125 -1.9372,2.30621 -2.57125,2.49537 -3.52221,1.05085 -0.63786,-0.9689 -0.84986,-2.56919 -0.47111,-3.55619 0.57499,-1.49842 -0.65165,-1.65101 -7.43353,-0.92474 -6.82102,0.73048 -8.24516,0.54924 -8.89005,-1.13131 -0.94707,-2.46805 -6.27003,-2.62794 -8.24547,-0.24767 -1.11774,1.3468 -1.08076,1.88871 0.15944,2.33669 1.30113,0.46998 1.31126,1.09711 0.0521,3.22959 -0.85937,1.45549 -1.5625,3.1948 -1.5625,3.86514 0,2.5374 11.46801,4.1131 36.25,4.98073 19.67748,0.6889 26.74839,1.38306 30.46515,2.99077 2.66209,1.1515 6.03709,2.11153 7.5,2.13339 3.00728,0.045 7.03485,2.70706 7.03485,4.64983 0,2.82548 11.56008,6.05578 31.07165,8.68253 10.61941,1.42965 20.3335,15.18508 11.59668,16.42122 -1.62617,0.23008 -3.56679,-0.19179 -4.3125,-0.9375 -3.48397,-3.48412 -8.35576,-0.82201 -8.35576,4.56584 0,1.082 -1.40889,3.81442 -3.13086,6.07205 -4.17619,5.47526 -10.55879,6.37619 -22.85191,3.22562 -5.00927,-1.28381 -9.40184,-1.85837 -9.76127,-1.27681 -0.35942,0.58157 -4.42723,1.05739 -9.03956,1.05739 -6.93215,0 -9.20039,-0.55335 -13.08302,-3.19166 -6.07839,-4.13038 -13.76439,-6.80834 -19.54054,-6.80834 -2.52607,0 -5.17427,-0.58143 -5.8849,-1.29206 -1.63745,-1.63745 -43.47914,-7.40573 -53.93559,-7.43555 -4.68447,-0.0134 -9.72764,-0.87876 -12.5,-2.145 -3.65709,-1.67033 -8.17071,-2.10726 -21.18272,-2.05056 -10.23277,0.0446 -17.17644,0.60407 -18.21725,1.46786 -1.19347,0.99048 -2.06984,1.00785 -3.01792,0.0598 -0.94808,-0.94809 -2.12937,-0.9115 -4.06794,0.12599 -1.50253,0.80413 -3.63889,1.114 -4.74748,0.6886 -1.10859,-0.42542 -5.85024,-0.39562 -10.53699,0.0662 -7.57094,0.74602 -8.6956,1.20496 -10.08345,4.11471 -1.00931,2.11612 -2.75408,3.41296 -4.93063,3.6648 -3.64763,0.42206 -5.4067,3.65906 -4.14636,7.63004 0.41805,1.31715 0.15183,2.77073 -0.59161,3.2302 -0.74344,0.45946 -1.00966,1.91305 -0.59161,3.2302 0.54071,1.70361 0.16083,2.3948 -1.31618,2.3948 -1.14195,0 -2.37757,-1.15224 -2.74585,-2.56053 -1.07374,-4.10599 -4.63227,-2.39606 -5.35826,2.57471 -0.58715,4.02013 -0.94806,4.33675 -4.61973,4.05275 -4.37882,-0.33872 -7.86837,3.12408 -7.86837,7.80804 0,1.4128 -0.8259,3.74788 -1.83533,5.18904 -1.63628,2.33611 -1.60238,2.82441 0.3125,4.50238 2.87284,2.51743 9.72383,5.93358 11.89958,5.93358 0.963,0 4.24008,1.32351 7.28241,2.94114 3.04233,1.61761 8.32924,3.36063 11.74868,3.87336 3.41944,0.51274 7.34216,1.54821 8.71716,2.30106 4.09548,2.2424 28.13003,8.21023 36.875,9.15615 4.95525,0.53599 9.42568,1.83786 11.45899,3.33716 l 3.334,2.4582 -6.27955,7.9906 c -7.2859,9.2711 -6.91609,11.0806 2.52627,12.36112 8.48865,1.1512 10.21029,1.7903 10.21029,3.7905 0,1.6448 2.56089,2.4736 5.625,1.8203 0.6875,-0.1466 4.90625,-0.2862 9.375,-0.3102 18.86171,-0.1015 20.07448,0.6878 12.662,8.2406 -5.8663,5.9773 -5.89895,8.29 -0.117,8.29 2.50821,0 4.28496,0.9731 5.68868,3.1154 2.88716,4.4063 1.50263,6.8846 -3.84619,6.8846 -3.67717,0 -4.6782,0.5913 -5.81988,3.4375 -0.75836,1.8907 -1.8597,4.5625 -2.44741,5.9375 -0.58771,1.375 -1.60706,3.9899 -2.26523,5.8108 -1.78648,4.9426 -11.14877,7.7323 -22.27143,6.6363 -8.39173,-0.8269 -8.60261,-0.774 -12.87,3.228 -5.14063,4.8209 -10.89668,7.4499 -16.31112,7.4499 -3.00043,0 -5.23733,-1.3282 -9.47335,-5.625 -3.04997,-3.0937 -5.97345,-5.625 -6.49659,-5.625 -0.52315,0 -2.7305,2.5244 -4.90523,5.6097 l -3.95405,5.6096 -7.84907,-0.8186 c -11.70808,-1.2212 -19.74192,-5.2622 -25.17432,-12.6626 -2.50236,-3.4089 -4.5599,-6.6851 -4.5723,-7.2805 -0.0309,-1.4814 -9.46422,-9.2076 -11.24214,-9.2076 -0.78802,0 -4.66636,-2.8125 -8.61853,-6.25 -3.95219,-3.4375 -7.77377,-6.25 -8.49242,-6.25 -3.50956,0 -14.06382,-5.9641 -19.69368,-11.1288 -8.96158,-8.221 -19.83077,-17.31992 -30.63312,-25.64362 -5.13006,-3.953 -10.26681,-8.687 -11.41501,-10.51992 -1.1482,-1.83295 -5.90546,-6.4264 -10.5717,-10.20765 -16.8003,-13.61401 -19.93237,-18.08429 -21.12706,-30.1537 -0.65328,-6.59974 1.40125,-16.97433 4.63185,-23.38909 1.26839,-2.51857 1.08632,-3.20679 -1.33069,-5.02994 -2.291,-1.72811 -2.51011,-2.41921 -1.20507,-3.80096 1.29346,-1.36949 1.29302,-1.79934 -0.002,-2.27336 -1.07385,-0.39296 -1.34982,-1.90441 -0.84198,-4.61142 0.53514,-2.85255 0.1808,-4.50377 -1.21509,-5.66225 -1.08363,-0.89947 -1.97037,-3.29192 -1.97037,-5.31657 0,-3.08012 -0.39775,-3.55493 -2.43606,-2.90801 -3.49705,1.10992 -6.9941,-2.9372 -8.18895,-9.47703 -0.55295,-3.02647 -1.09215,-5.78392 -1.19824,-6.12767 -0.10613,-0.34375 -0.62034,-2.41959 -1.14278,-4.61298 -0.6336,-2.66013 -2.37894,-4.83113 -5.24192,-6.52033 -3.62211,-2.1371 -4.31515,-3.27062 -4.44007,-7.26203 -0.0814,-2.60131 -0.0466,-5.2559 0.0772,-5.89907 0.124,-0.64318 -0.119,-2.54157 -0.53998,-4.21864 -0.68969,-2.74795 -1.25568,-2.98345 -5.72845,-2.38353 -7.0073,0.93988 -8.5664,-1.03692 -8.10607,-10.27768 l 0.37014,-7.43032 -4.96868,0.19814 c -3.61474,0.14415 -5.44723,-0.45631 -6.72486,-2.20359 -1.47196,-2.013 -1.48168,-2.55533 -0.0601,-3.35087 1.27741,-0.71488 1.46368,-2.42584 0.75459,-6.93163 -0.60696,-3.85688 -0.31691,-9.00937 0.81635,-14.5017 2.43267,-11.78991 2.39295,-12.05942 -1.61935,-10.98637 -2.41463,0.64577 -3.67175,2.04002 -4.41074,4.8919 -1.07076,4.13217 -4.86251,5.52914 -6.74411,2.48466 -0.95965,-1.55276 -0.9263,-12.04047 0.0816,-25.68346 0.51728,-7.0014 -0.65133,-10.37616 -2.16426,-6.25 -0.45667,1.2455 -0.90715,1.24727 -2.22041,0.009 -1.32408,-1.24873 -2.22654,-1.00976 -4.59709,1.21725 -2.50166,2.35019 -3.12651,2.49122 -4.11461,0.92875 -0.64076,-1.01324 -1.17364,-3.29884 -1.18416,-5.0791 -0.0207,-3.51896 -4.01196,-6.13815 -9.35353,-6.13815 -2.28015,0 -3.1575,0.86797 -3.7905,3.75 -0.453,2.0625 -1.25115,3.75 -1.77368,3.75 -0.52252,0 -1.59076,1.40625 -2.37388,3.125 -0.97078,2.13062 -2.42675,3.125 -4.57564,3.125 -1.73349,0 -3.1518,-0.60375 -3.1518,-1.34165 0,-1.67232 -4.34104,-0.95909 -4.46605,0.73378 -0.54682,7.40492 -2.33139,16.9931 -3.74967,20.14643 -1.79565,3.99235 -4.10209,5.29387 -11.69505,6.59949 -3.74424,0.64383 -4.32353,1.24111 -4.5845,4.72684 -0.50183,6.70299 -3.21534,10.96064 -7.28173,11.42545 -2.34873,0.26847 -4.0249,-0.28401 -4.74037,-1.5625 -2.38642,-4.26429 -3.69545,-2.04533 -5.10127,8.64716 -0.54488,4.14439 -1.82743,5.25169 -7.83511,6.76444 -5.73015,1.44286 -8.88899,3.90205 -13.72352,10.68392 l -2.55229,3.58032 0.49607,-5.20184 c 0.28754,-3.01511 -0.0379,-5.20184 -0.7741,-5.20184 -2.52222,0 -7.51527,7.5152 -9.09926,13.6956 -2.03969,7.95841 -6.70773,12.33695 -14.2556,13.3715 -4.5841,0.62831 -5.85651,1.40096 -7.16121,4.34849 -1.98084,4.47502 -4.6811,4.55555 -8.42367,0.25122 l -2.89816,-3.33317 -2.20832,4.27041 c -1.56584,3.028 -1.79887,4.52347 -0.80095,5.14022 1.63521,1.01062 1.71946,0.92458 -4.67782,4.77663 -3.49273,2.1031 -6.42793,2.86154 -10.18115,2.63074 -4.19823,-0.25818 -5.65652,0.22243 -7.15163,2.357 -1.03294,1.47472 -3.76392,3.62295 -6.06885,4.77383 -2.30494,1.15089 -4.19079,2.93628 -4.19079,3.96753 0,1.19152 -1.44437,2.01506 -3.96243,2.25924 -4.31129,0.41806 -4.52637,-0.39824 -1.66692,-6.32703 0.91325,-1.89352 1.32021,-3.78301 0.90437,-4.19886 -1.47562,-1.47561 -7.94766,4.41465 -10.3432,9.41345 -1.3375,2.79099 -2.99432,5.0831 -3.68182,5.0936 -0.6875,0.01 -6.85221,3.42958 -13.69937,7.59796 -6.84716,4.16839 -14.10693,7.9104 -16.13282,8.31558 -3.54326,0.70865 -3.65453,0.59216 -2.92389,-3.06105 0.41775,-2.08877 0.47278,-4.08453 0.12225,-4.43501 -0.57289,-0.5729 -16.42273,7.59262 -19.76031,10.18012 -1.35197,1.04815 -11.90066,3.912 -14.40941,3.912 -2.30239,0 -1.45678,-1.71911 3.68915,-7.5 3.75778,-4.22144 4.52211,-5.72874 3.06323,-6.04073 -1.06918,-0.22863 -2.63508,0.15788 -3.47979,0.85893 -0.84471,0.70105 -6.86456,3.2257 -13.37745,5.61032 -6.51289,2.38464 -13.93293,5.2325 -16.48896,6.32859 -6.07627,2.60564 -12.76463,2.69521 -11.79098,0.15793 0.38728,-1.00924 0.21425,-2.13774 -0.3845,-2.5078 -0.59876,-0.37005 -1.32335,0.0338 -1.61021,0.89747 -0.8206,2.47066 -32.95866,2.99598 -35.731532,0.58405 -1.319276,-1.14756 -6.447967,-2.12592 -13.960408,-2.66311 -6.53125,-0.46704 -13.194074,-1.17701 -14.806276,-1.57773 -4.394255,-1.09218 -0.780962,-2.84336 6.056276,-2.93516 3.09375,-0.0415 7.3125,-0.82262 9.375,-1.73576 l 3.75,-1.66024 -3.125,-0.69038 c -1.71875,-0.37972 -7.90625,-1.23456 -13.75,-1.89966 -5.84375,-0.66508 -13.4375,-2.25381 -16.875,-3.53048 l -6.25,-2.32124 12.5,-0.3101 c 14.080313,-0.34929 18.571004,-1.08197 17.477351,-2.85155 -0.412901,-0.66759 -6.482781,-1.25314 -13.489082,-1.30146 -7.006302,-0.0483 -13.863729,-0.57128 -15.238729,-1.16214 -1.375,-0.59086 -1.9375,-1.12244 -1.25,-1.18129 2.256952,-0.19318 -2.371688,-2.469 -9.375,-4.6095 -7.186509,-2.19648 -10.686112,-4.20921 -7.318735,-4.20921 1.062196,0 2.949377,-1.125 4.193735,-2.5 1.244357,-1.375 3.722164,-2.53954 5.506235,-2.58786 1.78407,-0.0483 4.368765,-0.53308 5.743765,-1.07724 1.889581,-0.7478 0.82135,-1.20624 -4.375,-1.87755 -3.78125,-0.4885 -7.859375,-1.16665 -9.0625,-1.507 -2.527814,-0.71509 -2.966105,-2.95035 -0.578505,-2.95035 0.884946,0 1.690995,-1.08859 1.791219,-2.41909 0.130106,-1.7272 -0.870023,-2.65018 -3.496853,-3.22713 -2.023491,-0.44444 -4.542423,-1.67142 -5.597626,-2.72662 -1.7247332,-1.72473 -1.31303,-2.21887 4.075357,-4.89138 3.296649,-1.63506 7.784139,-4.06815 9.972198,-5.40687 2.18806,-1.33872 5.95548,-2.80496 8.372044,-3.25831 2.416565,-0.45335 5.407583,-1.57827 6.64671,-2.49984 2.14447,-1.59487 2.132575,-1.68322 -0.247044,-1.83481 -7.4583,-0.47509 -12.156179,0.0169 -15.86287,1.66116 -8.453335,3.7499 -10.380554,3.79274 -6.737576,0.14977 1.361936,-1.36194 1.920287,-1.41384 2.401315,-0.22322 0.402731,0.99683 0.662036,0.8425 0.725447,-0.43176 0.05645,-1.13442 3.174619,-3.456 7.286184,-5.42482 10.905993,-5.2223 13.33064,-6.6465 13.821254,-8.11834 0.515121,-1.54536 -8.020862,-1.89944 -8.964953,-0.37186 -0.332059,0.53727 -2.322032,1.1078 -4.422164,1.26782 l -3.818422,0.29096 2.785892,-2.91097 c 1.532242,-1.60103 3.289804,-2.65015 3.905697,-2.33139 0.617062,0.31938 0.752303,-0.88465 0.301236,-2.68185 -0.628993,-2.50611 -0.236976,-3.57269 1.692696,-4.60542 1.381195,-0.73919 2.511264,-2.48239 2.511264,-3.87378 0,-1.39139 0.523632,-2.20618 1.163627,-1.81064 0.639996,0.39555 1.516942,0.14749 1.948772,-0.55122 0.431829,-0.69872 0.04882,-1.27249 -0.851128,-1.27507 -0.899949,-0.002 0.219697,-1.13623 2.488101,-2.51924 4.342088,-2.64733 4.497747,-5.19892 0.249383,-4.08794 -1.45193,0.37969 -2.498755,0.0378 -2.498755,-0.81613 0,-0.80825 0.556057,-1.12589 1.235682,-0.70586 0.730055,0.4512 0.904293,-0.0999 0.425813,-1.34679 -0.56269,-1.46635 -0.276063,-1.93255 0.939122,-1.52749 0.961944,0.32065 2.692523,-0.61651 3.845729,-2.08257 1.153206,-1.46606 5.258906,-4.00231 9.123778,-5.6361 4.897452,-2.0703 6.895112,-3.56569 6.59172,-4.93436 -0.239427,-1.08012 -1.105038,-1.82322 -1.923582,-1.65134 -3.810686,0.80015 -0.859422,-1.81078 4.453923,-3.94031 3.263049,-1.30779 9.037657,-4.26092 12.832466,-6.5625 3.794809,-2.30158 8.107549,-4.18469 9.583869,-4.18469 1.476319,0 5.402726,-1.19125 8.725349,-2.64721 3.322622,-1.45598 10.259881,-4.28507 15.416131,-6.28688 l 9.375,-3.63965 -9.42625,0.45738 c -5.18443,0.25155 -10.51922,0.074 -11.855091,-0.39464 -2.045619,-0.71756 -1.74169,-1.06831 1.926241,-2.223 2.39531,-0.75406 8.2926,-1.751 13.1051,-2.21544 8.64928,-0.83469 13.125,-3.00666 13.125,-6.3693 0,-0.99665 -1.38575,-1.68126 -3.40313,-1.68126 -3.22457,0 -3.27377,-0.0855 -0.9375,-1.62895 1.3561,-0.89591 6.07164,-2.34289 10.479,-3.21549 9.48518,-1.87795 17.61163,-4.94209 17.61163,-6.6406 0,-0.69039 -1.57154,-0.86844 -3.6452,-0.41297 -4.14036,0.90937 -12.87745,-0.39957 -12.01219,-1.79959 0.3139,-0.5079 5.64521,-3.05141 11.84736,-5.65223 13.55884,-5.68579 16.38242,-8.15017 9.33808,-8.15017 -9.37551,0 1.04599,-4.22298 20.40945,-8.27026 5.67187,-1.18553 10.3125,-2.6222 10.3125,-3.19261 0,-0.57043 -3.375,-1.03713 -7.5,-1.03713 -4.16666,0 -7.5,-0.55555 -7.5,-1.25 0,-0.6875 -0.84375,-1.25 -1.875,-1.25 -1.03125,0 -1.875,-0.5625 -1.875,-1.25 0,-0.6875 0.57861,-1.25 1.28581,-1.25 2.08914,0 26.2057,-11.78909 26.21013,-12.8125 0.006,-1.57313 -6.06475,-1.04675 -10.81374,0.9375 -2.46814,1.03125 -5.68444,1.86431 -7.14735,1.85125 -3.57845,-0.032 5.31674,-5.52821 18.27629,-11.29275 5.32737,-2.36968 9.68675,-4.73038 9.6875,-5.246 0.002,-1.5593 -9.0438,-0.9466 -14.37364,0.97355 -13.61388,4.90456 -9.10369,-0.22785 7.11691,-8.09876 6.7225,-3.26205 11.85568,-6.29803 11.40708,-6.74664 -0.44862,-0.44861 -2.83128,-0.82426 -5.29483,-0.83479 -11.9342,-0.051 -6.95245,-5.76144 9.15025,-10.48862 5.56633,-1.63409 12.79246,-3.66768 16.05809,-4.5191 3.26562,-0.85143 5.9375,-1.94369 5.9375,-2.42725 0,-2.12059 -1.82885,-2.31075 -5.24309,-0.54519 -2.02186,1.04555 -4.90367,1.68238 -6.40401,1.41516 -2.33077,-0.4151 -2.02762,-0.8 2.08237,-2.64392 2.64565,-1.18695 6.02065,-3.41156 7.5,-4.9436 1.47935,-1.53203 4.25453,-3.7761 6.16707,-4.98684 4.83756,-3.06244 3.32905,-4.3799 -3.74532,-3.27097 -3.29011,0.51575 -6.39235,0.55366 -6.89386,0.0842 -0.93851,-0.87843 7.27818,-6.92775 17.57359,-12.93809 l 5.83825,-3.4083 -5.38627,-0.0293 c -6.4221,-0.0349 -5.96905,-1.75708 1.21876,-4.63306 3.59204,-1.43725 4.5276,-2.30013 3.33117,-3.07234 -2.4212,-1.56275 0.5036,-3.1601 7.60564,-4.15375 7.84654,-1.09781 16.23822,-3.92756 20.7307,-6.99056 l 3.75,-2.55678 -5.95366,0.833 c -5.16248,0.7223 -5.85069,0.56464 -5.17877,-1.18636 0.42619,-1.11058 1.27722,-2.01929 1.89117,-2.01929 0.61394,0 1.11626,-0.5625 1.11626,-1.25 0,-0.6875 -1.96875,-1.25 -4.375,-1.25 -4.52743,0 -5.86016,-1.66261 -2.39776,-2.99126 1.08747,-0.41721 3.29147,-0.75864 4.89776,-0.75864 3.86849,0 7.01256,-1.26615 6.24161,-2.51357 -0.66375,-1.07398 9.39466,-9.89197 14.1059,-12.36633 5.17059,-2.71562 1.75495,-3.94756 -8.55986,-3.08735 -6.69229,0.55813 -9.91265,0.39448 -9.91265,-0.50371 0,-1.85386 4.44334,-2.53478 22.8125,-3.49588 9.19481,-0.48107 15.9375,-1.36077 15.9375,-2.0793 0,-0.68498 -1.16335,-0.94121 -2.58523,-0.56938 -3.60066,0.94158 -10.72053,-1.60484 -8.47273,-3.03029 1.94748,-1.23501 10.55947,-4.10529 18.28317,-6.09358 6.27736,-1.61595 5.86418,-3.74545 -0.73648,-3.79582 l -4.61373,-0.0353 5.512,-2.81931 c 5.75816,-2.94522 7.33984,-5.99345 4.38314,-8.44729 -0.95844,-0.79544 -1.42575,-1.95895 -1.03846,-2.58558 0.38728,-0.62663 0.15608,-0.98477 -0.51377,-0.79587 -0.66985,0.18891 -1.41478,-0.15897 -1.65541,-0.77305 -0.24062,-0.61409 4.81779,-3.3759 11.24093,-6.13737 6.42313,-2.76146 11.95563,-5.74325 12.29446,-6.6262 0.66022,-1.72053 14.81316,-16.35728 24.50209,-25.3397 3.24501,-3.00838 5.90002,-5.93301 5.90002,-6.49915 0,-0.56613 1.80776,-2.71884 4.01725,-4.78378 2.20949,-2.06495 3.668,-4.10369 3.24116,-4.53054 -1.13273,-1.13273 -7.40783,2.41168 -10.9138,6.1645 -1.66672,1.78406 -3.53278,3.24376 -4.14681,3.24376 -0.61402,0 -4.22379,2.53125 -8.02169,5.625 -6.33862,5.1634 -10.47616,7.02959 -10.3927,4.6875 0.0184,-0.51562 3.37834,-4.59375 7.46659,-9.0625 4.08825,-4.46875 7.44821,-8.54687 7.46659,-9.0625 0.0184,-0.51562 0.63609,-0.9375 1.3727,-0.9375 0.7366,0 2.05034,-0.70312 2.91939,-1.5625 0.86906,-0.85937 6.14005,-4.92321 11.7133,-9.03076 5.57325,-4.10754 9.92096,-7.68048 9.66157,-7.93985 -0.72502,-0.72504 -13.5138,3.74395 -15.1395,5.29044 -0.79075,0.75222 -2.60152,2.17326 -4.02394,3.15786 -1.42241,0.98461 -2.3695,2.14085 -2.10462,2.56943 0.26487,0.42857 -1.45275,1.82093 -3.81695,3.09415 -2.3642,1.2732 -4.29854,2.77436 -4.29854,3.33592 0,0.56155 -2.01596,2.8636 -4.47992,5.11566 -2.46395,2.25205 -6.15289,5.65453 -8.19764,7.56103 -2.04475,1.90651 -4.24753,3.13894 -4.89508,2.73874 -1.90744,-1.17883 -1.3482,-3.08008 0.90598,-3.08008 1.14582,0 1.78603,-0.29729 1.42269,-0.66064 -0.36336,-0.36335 2.42955,-3.70194 6.20646,-7.41907 4.34451,-4.27578 6.60535,-7.44051 6.15457,-8.61523 -0.39495,-1.02922 0.64583,-3.32244 2.33521,-5.14532 1.67626,-1.8087 3.04773,-3.77519 3.04773,-4.36998 0,-0.59478 0.70312,-1.38253 1.5625,-1.75055 0.85937,-0.36801 -1.10475,-0.59127 -4.36473,-0.49612 -4.3123,0.12586 -6.10596,0.73612 -6.58322,2.23981 -0.67757,2.13486 -6.41159,5.83674 -7.44306,4.80525 -0.92303,-0.92301 8.4705,-12.14926 10.86562,-12.98556 1.18915,-0.41522 2.0329,-1.25718 1.875,-1.87103 -0.3289,-1.27851 28.19173,-29.414 31.74351,-31.31485 1.95071,-1.04397 3.42751,-4.91671 1.87492,-4.91671 -1.46883,0 -14.43354,6.32455 -15.9047,7.75875 -0.96297,0.93877 -4.00084,3.37397 -6.75084,5.41156 -2.75,2.03758 -5.7433,4.40781 -6.65179,5.26719 -0.90847,0.85937 -2.59597,1.54461 -3.75,1.52275 -1.87257,-0.0355 -1.89068,-0.20351 -0.1684,-1.5625 1.0614,-0.83751 3.93563,-4.17219 6.38718,-7.4104 4.22231,-5.57715 12.91488,-13.36522 21.53448,-19.29372 5.65668,-3.89063 14.10755,-12.96175 11.96472,-12.84287 -1.75924,0.0976 -4.23584,1.43572 -17.0187,9.1952 -3.32612,2.01904 -8.98808,6.65966 -12.58214,10.3125 -3.59405,3.65285 -7.10968,6.64154 -7.8125,6.64154 -2.13799,0 -1.44164,-2.92863 1.84715,-7.76851 1.71875,-2.52938 3.125,-5.1912 3.125,-5.91518 0,-0.72397 0.44676,-1.31631 0.9928,-1.31631 0.54604,0 3.26156,-2.10938 6.0345,-4.6875 2.77292,-2.57813 8.98387,-6.8411 13.8021,-9.47328 11.66078,-6.37025 20.9827,-14.58922 16.54701,-14.58922 -1.86419,0 -20.87017,8.49376 -22.37641,10 -2.81062,2.81063 -13.71684,7.6897 -16.14398,7.22227 -1.12328,-0.21632 1.37834,-2.76025 6.19214,-6.29687 4.44226,-3.26366 8.7685,-6.50598 9.61386,-7.20515 0.84537,-0.69916 8.43912,-4.6289 16.875,-8.73274 8.43589,-4.10384 17.86923,-9.02095 20.96298,-10.92692 3.09375,-1.90598 7.44432,-4.5837 9.66792,-5.9505 4.0277,-2.47573 6.55659,-5.90083 3.70592,-5.01925 -17.88757,5.53177 -26.38225,9.22936 -28.6672,12.47835 -0.5051,0.7182 -0.92698,0.86202 -0.9375,0.31961 -0.01,-0.5424 -1.2502,0.16072 -2.75484,1.5625 -1.50464,1.40179 -3.26133,2.5487 -3.90376,2.5487 -0.64244,0 -4.71529,2.53125 -9.05079,5.625 -7.79431,5.5619 -9.83346,6.30491 -13.47181,4.90875 -2.16299,-0.83003 2.23612,-5.75619 11.65793,-13.05464 5.96179,-4.6182 8.62435,-6.75887 12.80065,-10.29161 1.4223,-1.20313 2.92182,-2.19019 3.33224,-2.19348 0.41043,-0.004 2.8402,-1.92923 5.39949,-4.27988 2.55929,-2.35067 5.71947,-4.61234 7.02265,-5.02595 2.82341,-0.89612 7.14741,-5.40655 6.14451,-6.40944 -1.05921,-1.05923 -17.2272,4.07145 -21.91312,6.95379 -4.86274,2.99111 -8.00123,3.29246 -6.99554,0.6717 0.8284,-2.1588 8.78414,-8.018 22.89374,-16.86068 9.05661,-5.6759 13.73875,-9.11929 18.10658,-13.31615 0.79999,-0.76867 2.69392,-1.79095 4.20873,-2.27174 4.16715,-1.3226 3.29726,-2.94097 -1.29349,-2.40646 -5.35245,0.6232 -7.60881,1.37285 -16.92111,5.62184 -8.77276,4.00281 -9.7542,4.19292 -11.02556,2.13581 -0.5526,-0.89412 -0.3429,-1.10382 0.55122,-0.55122 0.79373,0.49055 1.44314,0.36378 1.44314,-0.28169 0,-1.29953 11.28572,-9.94445 16.35532,-12.52825 1.77668,-0.90551 4.87043,-3.0434 6.875,-4.75085 l 3.64468,-3.10446 -3.75,0.71078 c -2.0625,0.39093 -6.84375,0.9935 -10.625,1.33904 -6.14173,0.56125 -6.47503,0.47655 -3.125,-0.79409 2.0625,-0.78228 4.59632,-2.15493 5.63072,-3.05033 1.0344,-0.8954 6.6594,-3.66729 12.5,-6.15974 5.8406,-2.49246 13.94351,-6.18646 18.00643,-8.2089 4.06294,-2.02244 8.84419,-3.68576 10.625,-3.69629 2.4948,-0.0148 2.81399,-0.28717 1.39086,-1.1871 -1.01584,-0.64237 -4.10959,-0.9339 -6.875,-0.64784 -2.76541,0.28607 -12.61042,0.82902 -21.87782,1.20655 -14.48343,0.59004 -16.59003,0.44033 -15,-1.06603 1.0174,-0.96385 7.47481,-3.2913 14.34981,-5.1721 6.875,-1.8808 15.03125,-4.17539 18.125,-5.09909 3.09375,-0.92369 8.85937,-2.58241 12.8125,-3.68604 3.95312,-1.10364 7.1875,-2.4686 7.1875,-3.03326 0,-0.56466 4.07812,-2.00626 9.0625,-3.20355 13.10468,-3.14788 14.42904,-4.52594 3.4375,-3.57688 -8.85329,0.76444 -13.90894,1.87568 -36.16546,7.94923 -10.5203,2.87086 -16.79378,3.28796 -16.05357,1.06734 0.26912,-0.80734 3.51194,-2.49533 7.20628,-3.75108 3.69435,-1.25575 11.53666,-4.58467 17.42737,-7.39761 8.97033,-4.28353 13.0458,-5.41286 25.08538,-6.95126 26.23189,-3.35189 25.92474,-3.86495 -2.5,-4.17597 -14.78125,-0.16173 -27.92155,-0.1834 -29.20066,-0.0481 -3.36709,0.35604 -1.88589,-2.8333 1.79333,-3.86146 1.66778,-0.46605 5.6021,-0.90345 8.74295,-0.97198 3.14084,-0.0685 8.48459,-0.91197 11.875,-1.87432 3.3904,-0.96234 10.805,-2.43737 16.47688,-3.27782 5.67187,-0.84045 10.3125,-1.93577 10.3125,-2.43406 0,-0.49827 -6.54601,-1.25677 -14.54669,-1.68554 -14.10946,-0.75615 -16.71891,-1.25393 -15.09356,-2.87928 1.51606,-1.51607 21.58307,-2.84643 32.73362,-2.17013 10.99957,0.66715 24.47619,-1.63219 26.2337,-4.47591 0.92353,-1.49429 -7.2329,-2.54681 -19.95207,-2.57465 -13.04209,-0.0285 -24.375,-1.19891 -24.375,-2.51724 0,-1.29919 6.21357,-2.14405 32.51709,-4.42134 29.07327,-2.5171 36.4306,-3.53207 33.10791,-4.56738 -5.8949,-1.83677 -19.86003,-3.54245 -34.80486,-4.25101 -12.04945,-0.57129 -15.69819,-1.11792 -14.6252,-2.19105 0.98021,-0.98035 12.11848,-1.56788 35.42986,-1.86886 18.70011,-0.24145 34.81469,-0.88863 35.81016,-1.43818 3.24036,-1.78883 -14.14612,-5.46573 -37.72775,-7.97867 -8.06727,-0.85968 -15.05165,-1.94693 -15.52082,-2.41611 -1.38227,-1.38225 24.04118,-0.97413 38.93861,0.62509 15.96775,1.71412 20.00879,1.73907 29.375,0.18142 l 6.875,-1.14335 -6.875,-1.76575 c -3.78125,-0.97117 -7.15625,-1.82956 -7.5,-1.90754 -0.34375,-0.078 -3.04881,-0.83641 -6.01126,-1.68539 -4.40329,-1.26191 -30.99678,-5.10557 -35.81623,-5.17667 -0.71363,-0.0105 -0.45376,-0.56442 0.57749,-1.23087 3.20095,-2.06861 26.10901,-1.35127 40.52427,1.26898 15.91237,2.89241 14.47573,2.75006 14.47573,1.43439 0,-1.4846 -27.52335,-10.20334 -32.20995,-10.20334 -2.14087,0 -4.24015,-0.5625 -4.66505,-1.25 -0.4249,-0.6875 0.10437,-1.25 1.17623,-1.25 1.07182,0 1.94877,-0.84375 1.94877,-1.875 0,-1.43813 1.59301,-1.875 6.83716,-1.875 11.34343,0 33.11637,3.68758 44.64365,7.56109 5.97069,2.00633 14.12694,3.98283 18.125,4.39222 l 7.26919,0.74435 -3.125,-2.57103 c -1.71875,-1.41407 -3.55206,-2.58355 -4.07401,-2.59883 -1.10373,-0.0323 -27.13383,-10.97054 -40.92599,-17.19767 -7.19795,-3.24985 13.448,-1.24114 21.875,2.1283 1.375,0.54977 6.4375,2.55058 11.25,4.44624 4.8125,1.89565 11.10016,4.77385 13.97259,6.39599 3.47568,1.96282 7.2272,2.94934 11.21563,2.94934 5.42918,0 5.76105,-0.16003 3.52742,-1.70089 -1.3561,-0.93549 -4.71564,-2.48237 -7.46564,-3.4375 -2.75,-0.95513 -6.00185,-2.63845 -7.22635,-3.74071 -1.22449,-1.10225 -7.89806,-4.45445 -14.83017,-7.44932 -10.77071,-4.65326 -12.22412,-5.61466 -9.99309,-6.61017 2.93721,-1.31062 13.3555,0.85948 32.62491,6.79566 6.50392,2.00361 13.25393,3.64961 15,3.65777 1.74609,0.008 6.24229,0.83119 9.99157,1.82896 3.74928,0.99777 7.00914,1.62186 7.24413,1.38687 1.01276,-1.01277 -28.82549,-14.36784 -39.3735,-17.62289 -11.37346,-3.50977 -14.54673,-5.60778 -8.48182,-5.60778 5.92977,0 27.61742,4.78032 35.66932,7.8621 12.78265,4.89244 17.09654,6.04509 23.77201,6.35175 3.4254,0.15736 6.22799,0.16898 6.22799,0.0258 0,-0.89674 -16.94383,-9.32322 -23.24649,-11.56093 -8.13426,-2.88799 -19.0224,-8.14875 -14.87851,-7.18876 1.375,0.31854 5.59375,0.94782 9.375,1.39841 7.3563,0.87659 16.47489,3.14369 17.5,4.3509 0.34375,0.40481 5.125,2.90021 10.625,5.54533 5.5,2.64512 10.28125,5.20781 10.625,5.69487 0.34375,0.48706 2.18546,1.26755 4.0927,1.73442 3.26595,0.79947 3.37504,0.69524 1.875,-1.79159 -1.5112,-2.50534 -18.72925,-14.92234 -20.69209,-14.92234 -0.50938,0 -2.34345,-1.31419 -4.0757,-2.92042 -1.73225,-1.60624 -4.67963,-3.30445 -6.54974,-3.77382 -4.94796,-1.24186 -4.34068,-3.696033 0.66233,-2.67664 6.46083,1.31644 18.88693,7.4506 26.52884,13.09601 7.85576,5.80339 17.22487,9.11092 24.17196,8.53331 l 4.6117,-0.38344 -5.625,-2.95356 c -3.09375,-1.62446 -6.75,-3.9614 -8.125,-5.19319 -1.375,-1.2318 -5.3125,-3.79286 -8.75,-5.69124 -3.4375,-1.89839 -7.9375,-4.47231 -10,-5.71982 -2.0625,-1.24752 -5.8961,-3.198753 -8.51911,-4.336083 -2.62303,-1.13733 -4.30313,-2.53387 -3.73358,-3.10342 1.09708,-1.09707 15.16653,3.13625 29.78724,8.962603 13.33121,5.31249 20.748,7.66883 21.56541,6.85142 1.12,-1.12 -11.88578,-12.680993 -19.36532,-17.214063 -6.22049,-3.77002 -8.20112,-5.97765 -5.36298,-5.97765 0.68567,0 4.76379,1.60515 9.0625,3.567 13.77537,6.28681 32.25212,13.038393 33.16992,12.120603 0.48933,-0.48935 -1.49952,-2.98861 -4.41968,-5.553923 -5.8112,-5.10503 -6.43839,-6.38644 -3.1219,-6.37833 2.8285,0.007 11.26216,5.65327 16.90145,11.315553 3.11813,3.13084 6.3664,4.89337 10.9816,5.95869 3.60456,0.83203 6.78975,1.27678 7.07821,0.98832 1.13158,-1.13158 -2.81937,-5.6652 -5.52997,-6.34552 -1.57784,-0.39601 -2.86879,-1.25384 -2.86879,-1.90628 0,-0.65245 -1.54688,-2.078433 -3.4375,-3.168853 -3.41785,-1.97125 -3.40264,-1.97863 2.66225,-1.29159 3.35486,0.38004 7.85486,1.74648 10,3.036533 2.14514,1.29006 4.62469,2.08058 5.51011,1.75673 1.77314,-0.64856 8.34252,2.19042 15.5528,6.72117 7.97625,5.01208 9.46004,3.33739 3.84616,-4.341 -1.85138,-2.53225 -4.00951,-5.166603 -4.79581,-5.854103 -0.78631,-0.6875 -2.10382,-2.51562 -2.92781,-4.0625 -4.66935,-8.76578 12.12859,4.82859 21.62394,17.500003 1.93192,2.57813 4.30075,4.6875 5.26406,4.6875 0.96331,0 3.97913,1.40625 6.7018,3.125 2.72267,1.71875 5.2251,3.125 5.56092,3.125 1.10269,0 -0.97801,-4.2765 -4.86542,-10 -2.10127,-3.09375 -3.91775,-6.19799 -4.0366,-6.8983 -0.11887,-0.70032 -0.60171,-2.8097 -1.07301,-4.6875 -1.24704,-4.968613 0.92581,-4.194943 5.3314,1.8983 13.08897,18.10301 24.41768,24.07903 20.43276,10.7785 -0.86335,-2.88158 -2.36405,-6.03356 -3.33489,-7.0044 -1.92766,-1.92767 -2.4159,-6.5866 -0.69025,-6.5866 0.5912,0 2.13808,1.49192 3.4375,3.31539 1.29943,1.82346 3.29144,4.29918 4.42669,5.5016 1.13525,1.20241 2.43879,3.36674 2.89674,4.80961 0.45795,1.44287 1.39042,2.6234 2.07216,2.6234 0.68175,0 0.88805,0.56873 0.45845,1.26384 -1.21135,1.95999 6.31557,8.73616 9.70406,8.73616 4.60634,0 4.92755,-1.21652 1.78721,-6.76874 -1.58845,-2.80844 -2.85313,-5.90313 -2.81041,-6.87709 0.1272,-2.89939 3.31111,-3.08454 4.05606,-0.23586 0.37852,1.44743 1.04448,2.64232 1.47992,2.6553 0.43543,0.013 2.44503,2.72175 4.46576,6.01948 2.82874,4.61636 4.80548,6.34899 8.5916,7.53063 2.70465,0.84412 5.11584,1.33646 5.3582,1.0941 1.32243,-1.32242 -7.6365,-19.66782 -9.60472,-19.66782 -0.71042,0 -0.97667,-0.50969 -0.59165,-1.13265 1.35428,-2.19129 5.8311,0.25259 9.80556,5.35285 4.97506,6.38428 7.14196,10.19912 7.14196,12.57344 0,2.94953 5.9865,8.56137 10.99343,10.30542 6.53123,2.27501 6.97655,2.09165 4.33887,-1.78656 -3.37685,-4.96502 -10.3323,-18.54632 -10.3323,-20.17497 0,-3.56878 4.13846,-0.66614 9.23676,6.47849 6.41137,8.98472 18.26324,19.7195 18.26324,16.54183 0,-1.09502 -1.40625,-4.76606 -3.125,-8.15785 -6.52317,-12.87286 -1.15982,-10.71998 6.78304,2.72276 6.41066,10.84957 8.60068,13.52724 11.06375,13.52724 1.48879,0 1.54119,-0.3532 0.27821,-1.875 -0.85586,-1.03125 -1.06536,-1.88361 -0.46555,-1.89414 0.5998,-0.0105 0.2468,-0.56441 -0.78445,-1.23086 -1.03125,-0.66644 -1.23015,-1.22033 -0.44199,-1.23086 0.78815,-0.0105 3.23648,2.09024 5.4407,4.66836 9.59164,11.21863 13.46514,15.18199 14.15931,14.48781 0.90578,-0.90578 -2.23373,-7.17557 -6.21828,-12.4183 -1.61686,-2.12739 -2.93974,-4.29056 -2.93974,-4.80703 0,-0.51648 -1.1633,-2.57276 -2.58511,-4.56952 -1.42183,-1.99675 -2.24578,-3.63046 -1.83103,-3.63046 0.41475,0 0.10175,-1.26562 -0.69552,-2.8125 -1.75614,-3.40717 4.19757,3.11602 8.86166,9.70931 1.71875,2.42967 3.96875,5.48242 5,6.7839 1.03125,1.30147 2.93021,3.80764 4.21992,5.56928 1.28972,1.76163 2.81538,2.91221 3.39037,2.55685 1.19401,-0.73794 -0.76716,-5.81701 -4.19696,-10.86934 -1.28347,-1.89062 -1.9921,-3.4375 -1.57476,-3.4375 0.41736,0 -0.33545,-1.17456 -1.67288,-2.61013 -2.37813,-2.5526 -4.34618,-7.38987 -3.0066,-7.38987 1.11538,0 6.58773,6.77608 6.58938,8.15923 0.004,2.64404 17.17388,21.84077 19.53573,21.84077 1.95902,0 2.24682,-2.91808 0.5936,-6.01967 -0.6171,-1.15793 -1.3203,-3.51158 -1.56245,-5.23033 -0.24219,-1.71875 -1.14348,-3.8683 -2.00285,-4.77678 -2.10261,-2.22277 -1.97185,-3.97322 0.29683,-3.97322 1.67657,0 8.08939,8.55913 8.17619,10.91266 0.019,0.52929 2.2792,3.48424 5.0215,6.56655 2.7423,3.08231 6.4418,8.42606 8.221,11.875 4.2982,8.33182 5.5401,9.50586 5.2526,4.96558 -0.1287,-2.03213 -0.6266,-4.25729 -1.1064,-4.94479 -1.5887,-2.27634 -4.9242,-15.31903 -4.9242,-19.25488 0,-5.30833 1.8451,-4.85101 5.8194,1.44238 7.1122,11.26251 9.2817,14.26315 14.6859,20.3125 l 5.5834,6.25 -0.476,-7.1173 c -0.2617,-3.91451 -1.3504,-8.80845 -2.4193,-10.87542 -2.2034,-4.26102 -2.4697,-6.38228 -0.801,-6.38228 0.6284,0 3.1166,3.53018 5.5295,7.84484 2.4129,4.31467 5.5551,8.90185 6.9826,10.19374 1.4275,1.29189 2.5955,2.81329 2.5955,3.38088 0,2.48516 8.9568,14.72769 11.3248,15.47928 1.4375,0.45624 2.8105,0.6326 3.0512,0.39191 0.7537,-0.75363 -2.0938,-11.49768 -4.0256,-15.18969 -1.0142,-1.93823 -1.4809,-3.88708 -1.0372,-4.33079 1.3134,-1.31343 4.922,1.51987 6.9394,5.44844 1.0326,2.01102 3.0699,5.34389 4.5272,7.40639 1.4573,2.0625 4.0831,6.5625 5.8352,10 1.7521,3.4375 4.0491,7.375 5.1046,8.75 1.8185,2.36909 1.9117,2.23817 1.7794,-2.5 -0.077,-2.75 -1.4439,-8.49112 -3.038,-12.75804 -1.8909,-5.06118 -2.4459,-8.03774 -1.5966,-8.56267 0.7161,-0.44254 1.4781,-0.60768 1.6934,-0.36696 1.1151,1.24669 7.8638,15.18141 10.6723,22.03601 2.1306,5.2 4.2961,8.40885 6.4174,9.5094 l 3.2017,1.66105 -0.8786,-4.50939 c -0.4833,-2.48018 -1.8369,-8.11044 -3.008,-12.51171 -3.0328,-11.39733 -3.3638,-15.12269 -1.3435,-15.12269 1.6933,0 3.0441,3.29691 5.6338,13.75 2.1085,8.5107 7.1868,21.41469 10.0847,25.625 l 2.5809,3.75 -0.7746,-10.625 c -0.4261,-5.84375 -1.0712,-12.17187 -1.4336,-14.0625 -0.4734,-2.46982 -0.1498,-3.4375 1.1498,-3.4375 1.1569,0 3.0357,3.71604 5.2138,10.3125 1.8729,5.67187 4.4204,12.5625 5.6612,15.3125 1.2407,2.75 3.1798,7.23029 4.3089,9.95619 2.0906,5.04705 3.8435,6.86545 6.6511,6.89967 1.1198,0.0136 1.4286,-1.7933 1.0765,-6.30017 -0.2714,-3.47563 -0.7404,-6.56618 -1.0421,-6.86789 -0.3017,-0.30171 -0.2969,-2.26368 0.011,-4.35991 0.9552,-6.50807 3.3181,-3.30755 4.831,6.54367 0.7955,5.17935 2.9049,12.5001 4.6875,16.26834 1.7827,3.76822 3.2412,7.27272 3.2412,7.78775 0,1.63304 5.1185,8.19735 6.3918,8.19735 1.2829,0 0.2841,-7.89033 -1.4242,-11.25 -1.6417,-3.22884 -1.9647,-14.11272 -0.4341,-14.62981 1.7367,-0.58672 2.797,2.03342 3.6295,8.96852 0.3513,2.92665 1.668,7.43723 2.926,10.02349 2.0928,4.30265 2.3492,4.46506 3.0172,1.9109 0.4015,-1.53527 0.1742,-4.2532 -0.5051,-6.03984 -2.9614,-7.78894 -5.8372,-20.2488 -4.8189,-20.87817 1.353,-0.83619 3.8818,3.98456 6.8473,13.05315 1.2199,3.73077 3.5117,7.98209 5.0927,9.44736 2.5026,2.31933 5.8966,9.59086 7.334,15.71274 0.2509,1.06882 1.4584,4.16257 2.6833,6.875 2.0886,4.62512 2.2551,4.73358 2.6776,1.74501 0.2478,-1.75266 -0.7699,-8.50266 -2.2616,-15 -4.0384,-17.5903 -4.0362,-18.76964 0.02,-10.67491 2.0363,4.06365 4.1806,7.7199 4.7651,8.125 0.5846,0.40511 2.0953,3.54906 3.3573,6.98656 4.134,11.26082 12.0148,26.63154 14.056,27.41484 1.4703,0.56421 1.6816,0.34612 0.7981,-0.82373 -3.8811,-5.13906 -5.3863,-20.78794 -2.103,-21.86496 0.8162,-0.26774 2.0447,2.09176 2.8785,5.52837 0.8,3.29752 3.3328,9.84549 5.6283,14.55107 l 4.1738,8.55558 0.5576,-6.05558 c 0.3113,-3.37992 -0.1531,-7.85062 -1.0509,-10.11809 -1.4462,-3.6523 -1.3869,-4.0625 0.5877,-4.0625 1.6668,0 3.2165,3.01495 6.4275,12.50409 5.0267,14.85525 5.8019,16.31435 7.3724,13.87626 1.9961,-3.09874 4.6391,-0.54746 7.4668,7.20765 4.2061,11.53582 5.7106,11.21182 4.6913,-1.01029 -0.677,-8.11822 -0.5192,-10.19925 0.7416,-9.78179 1.0473,0.34677 1.8915,4.30287 2.4396,11.43189 0.7795,10.13795 2.2708,14.52219 4.9399,14.52219 0.6034,0 1.097,-1.89024 1.097,-4.20054 0,-15.4989 4.2204,-21.5937 5.7275,-8.27149 0.4685,4.14038 1.416,7.87673 2.1057,8.30298 0.8155,0.50399 0.9497,-1.25435 0.3838,-5.02796 -1.3963,-9.31142 1.3854,-6.94394 4.5641,3.88451 l 2.8439,9.6875 0.7491,-7.83246 c 1.3279,-13.88298 3.8833,-12.16279 7.0568,4.75032 1.9598,10.44498 2.5442,11.87843 4.9846,12.22699 2.7362,0.39082 2.7459,0.33347 0.938,-5.625 -2.0796,-6.85428 -2.379,-11.64485 -0.7276,-11.64485 0.6191,0 1.6035,2.00296 2.1875,4.45104 1.2588,5.27784 3.1591,5.63383 4.5981,0.86146 2.2795,-7.55935 2.1102,-7.29568 3.3866,-5.27746 0.64,1.01197 1.1723,3.58415 1.1828,5.71593 0.02,4.05671 2.2081,11.432 4.0361,13.60453 0.5876,0.69822 1.9284,2.3945 2.9797,3.7695 1.7815,2.33001 1.8643,2.11754 1.2173,-3.125 -0.3819,-3.09375 -1.0041,-7.59375 -1.3828,-10 l -0.6883,-4.375 2.0006,3.49886 c 1.4787,2.58604 2.6341,3.29781 4.4286,2.72826 2.0511,-0.65103 2.4555,-0.12722 2.6059,3.37614 0.3921,9.13329 0.9217,12.62154 2.0949,13.79461 1.5391,1.53911 2.28,-0.90314 3.3751,-11.1259 0.4554,-4.25042 1.5851,-8.75042 2.5107,-10 1.5253,-2.05907 1.7639,-1.77415 2.5469,3.04053 0.4864,2.99139 1.554,5.3125 2.4434,5.3125 0.8687,0 2.4914,2.27888 3.6059,5.06416 2.244,5.60835 3.8805,5.57981 5.1256,-0.0894 1.1739,-5.34455 3.1195,-3.33375 3.1195,3.22401 0,3.85716 0.5207,5.55122 1.7062,5.55122 0.996,0 2.8753,3.51273 4.5139,8.4375 4.0141,12.0638 5.0299,12.28659 5.0299,1.10327 0,-9.49508 0.062,-9.68958 2.8077,-8.8181 3.5655,1.13163 5.0543,3.07146 9.7588,12.71483 2.0961,4.29688 4.0551,7.8125 4.3531,7.8125 0.2981,0 0.1893,-3.37499 -0.2419,-7.5 -1.1677,-11.17267 1.4008,-9.48877 5.2433,3.4375 5.4096,18.19772 5.3717,18.14484 5.4804,7.65305 0.072,-6.99691 0.6145,-9.96256 2.0368,-11.14306 1.6335,-1.35561 2.0448,-1.20126 2.6157,0.98138 0.3725,1.4245 1.6365,2.84086 2.809,3.14746 1.1932,0.31205 2.8083,2.81604 3.6688,5.68809 0.8454,2.82185 2.1798,5.52777 2.9652,6.01316 0.9586,0.59245 1.1518,0.16289 0.5878,-1.3068 -1.796,-4.68029 -2.3323,-11.67019 -0.9606,-12.51801 0.7778,-0.48067 1.7033,0.14041 2.0945,1.40551 2.8856,9.33221 8.0314,16.29261 8.0314,10.86368 0,-3.4201 3.1814,0.17855 5.4809,6.19973 1.1313,2.96242 3.8006,6.67529 5.9316,8.25083 l 3.8746,2.86461 -2.7297,-3.69225 c -3.114,-4.21186 -5.3652,-12.50714 -3.6773,-13.5503 0.6159,-0.38066 1.1199,-0.1583 1.1199,0.49414 0,0.65245 2.5301,4.62315 5.6224,8.82377 5.7163,7.76507 9.3776,9.74209 9.3776,5.06374 0,-1.41557 0.5625,-2.22612 1.25,-1.80122 0.6875,0.4249 1.25,2.50546 1.25,4.62346 0,3.67729 1.4967,5.62202 6.6144,8.59436 1.6891,0.98104 1.1516,-0.8593 -2.1875,-7.4899 -2.4348,-4.83479 -4.4269,-9.36706 -4.4269,-10.07172 0,-2.68527 2.5192,-1.1137 4.4584,2.7813 1.8975,3.81122 12.6348,14.6875 14.4998,14.6875 0.4675,0 2.6482,1.51303 4.8458,3.3623 l 3.9959,3.36231 -0.895,-5.54981 c -0.4924,-3.05239 -1.7298,-6.86423 -2.7499,-8.47075 -1.0201,-1.60653 -1.532,-3.24372 -1.1375,-3.63818 1.1352,-1.13527 5.7071,3.57073 9.11,9.37714 1.8319,3.12584 4.3569,5.6319 6.1204,6.07452 1.6511,0.41442 3.0021,1.53625 3.0021,2.49298 0,0.95671 0.4651,1.73949 1.0335,1.73949 0.5685,0 0.7772,-1.74607 0.464,-3.88013 -0.5389,-3.67149 -0.4206,-3.80047 2.1986,-2.39872 1.5224,0.81476 2.9598,1.28965 3.1941,1.05528 0.2344,-0.23435 4.0687,-7.56002 8.5205,-16.27927 9.37,-18.35125 15.1393,-25.83018 22.9255,-29.71881 6.8293,-3.41068 10.6963,-2.87193 22.5138,3.13663 7.5925,3.86042 9.2314,5.39427 14.9829,14.02229 3.5518,5.32825 7.8243,12.39338 9.4945,15.70028 l 3.0367,6.01255 2.3336,-3.51255 c 1.2835,-1.9319 3.207,-5.20005 4.2744,-7.26255 2.1915,-4.23465 24.0826,-30.74639 29.5678,-35.80874 7.4237,-6.85145 19.0502,-5.60373 21.023,2.2561 0.4783,1.90625 1.9353,5.80501 3.2378,8.66391 2.3892,5.24455 4.4024,12.86666 5.4554,20.65449 0.315,2.32882 1.4376,8.45299 2.4948,13.60924 1.0572,5.15625 2.3628,12.75 2.9013,16.875 l 0.9792,7.5 16.2467,5.7258 c 8.9358,3.14918 21.8719,8.71373 28.7469,12.36566 19.3559,10.28162 26.1002,13.47857 31.5061,14.9342 2.7441,0.73891 8.8679,3.89094 13.6084,7.00447 10.819,7.10598 12.5314,6.94223 11.9476,-1.14258 -0.3021,-4.18489 -0.013,-5.80157 0.9375,-5.21504 0.7565,0.46751 1.3754,3.86976 1.3754,7.56054 0,5.7937 0.4589,7.07148 3.359,9.3527 2.5715,2.02268 3.5621,2.26377 4.2254,1.02822 0.8598,-1.60179 2.5002,-27.51424 2.6146,-41.30147 0.035,-4.16322 0.6136,-7.1875 1.3762,-7.1875 0.9043,0 1.0809,8.2104 0.5638,26.21511 l -0.7529,26.21512 4.5918,3.78488 c 6.1217,5.04606 8.2443,4.96651 7.4077,-0.27761 -1.2756,-7.99585 4.0764,-57.1875 6.222,-57.1875 0.3743,0 0.3358,2.95312 -0.085,6.5625 -2.0812,17.83031 -3.3236,41.10637 -2.5521,47.8125 l 0.8627,7.5 1.5932,-6.24373 c 0.8762,-3.43404 1.4067,-6.54524 1.179,-6.91377 -1.0312,-1.66852 7.7828,-36.02759 9.7717,-38.0925 1.2663,-1.3147 1.0328,0.20328 -2.1151,13.75 -4.2609,18.33651 -5.7144,25.84448 -6.5135,33.64443 -0.8226,8.02922 -0.7178,8.48957 2.761,12.12588 1.9887,2.0789 5.5847,4.9564 7.991,6.39445 2.4062,1.43806 5.5415,3.65364 6.9674,4.9235 2.311,2.05835 5.836,3.26474 21.7826,7.45509 6.181,1.6242 41.9039,4.84461 65.9559,5.94591 l 20.3308,0.93091 4.4432,4.28991 c 4.1387,3.99594 4.3877,4.6644 3.6322,9.75467 -0.6989,4.70958 -2.471,9.31988 -6.8037,17.70127 -0.5448,1.05383 -1.3703,3.64508 -1.8344,5.75835 l -0.844,3.84233 6.7524,0.7936 c 7.7867,0.91518 45.908,11.61308 47.6801,13.3804 1.8479,1.84287 0.4155,1.54855 -21.0515,-4.32578 -11.0749,-3.03054 -23.9441,-5.85986 -28.5985,-6.28737 -8.0393,-0.73843 -8.6176,-0.61 -11.5625,2.5676 -4.0314,4.34986 -3.917,5.02017 0.9927,5.81691 7.3292,1.18935 24.1129,8.33329 34.8143,14.81859 11.9824,7.2616 11.76,7.09402 10.7506,8.10345 -0.4175,0.4175 -4.0269,-1.06043 -8.0209,-3.28429 -12.4783,-6.94799 -16.8241,-8.92073 -27.513,-12.4892 -11.5588,-3.85898 -14.0955,-2.50801 -4.4018,2.34439 6.3146,3.161 20.1402,12.18257 25.2781,16.49466 l 3.125,2.62274 -3.6756,-0.80729 c -2.0217,-0.44401 -5.7589,-2.45718 -8.3049,-4.4737 -2.5461,-2.01653 -5.0095,-3.66641 -5.4741,-3.66641 -0.4648,0 -3.4007,-1.75835 -6.5243,-3.90747 -3.1236,-2.1491 -8.9299,-4.89166 -12.9029,-6.09458 -8.5957,-2.60258 -12.5142,-1.3615 -6.1127,1.93608 5.8959,3.03718 12.0105,7.59679 18.6295,13.89183 3.0992,2.94756 7.9685,6.92069 10.8207,8.82916 12.9748,8.68186 20.4193,14.28203 20.4193,15.36061 0,0.72805 -1.1619,0.73074 -3.0651,0.007 -4.8852,-1.8573 -2.828,1.08359 5.6517,8.07979 4.1515,3.42515 6.9564,6.4248 6.2331,6.6659 -2.4815,0.82716 -9.4588,-4.63206 -21.2965,-16.66289 -19.7901,-20.11317 -40.1363,-35.60518 -43.3063,-32.97435 -3.4123,2.83192 -1.6239,6.52115 8.0392,16.58404 15.8156,16.47005 25.6229,28.14959 34.247,40.78476 10.23,14.98822 10.2368,15.00047 8.2581,14.99777 -0.8998,-10e-4 -3.2875,-2.6731 -5.3056,-5.9375 -2.0181,-3.26439 -4.4105,-6.77902 -5.3164,-7.81027 -0.9058,-1.03125 -3.5497,-4.24191 -5.8753,-7.13481 -7.6223,-9.48111 -37.5194,-40.3656 -39.0756,-40.3656 -2.715,0 -3.5352,5.38423 -1.0403,6.82934 8.8554,5.12938 28.4176,28.44686 40.2221,47.94315 4.6214,7.63263 10.6861,24.17031 9.3528,25.50363 -0.7714,0.77144 -2.596,-2.40715 -5.0818,-8.85281 -6.6721,-17.30129 -31.1775,-51.48371 -42.0912,-58.71263 -6.6844,-4.42762 -8.3259,-4.76666 -10.4845,-2.16558 -1.7458,2.10336 -0.2894,5.65986 4.3836,10.7049 4.9599,5.35495 16.5627,27.09556 20.5414,38.48892 2.0907,5.98734 4.0772,13.97983 4.4145,17.76108 0.6015,6.74535 0.5786,6.80429 -1.215,3.125 -1.0055,-2.0625 -1.8535,-4.59236 -1.8845,-5.62191 -0.293,-9.72764 -18.5976,-47.24495 -26.7733,-54.87457 l -3.2108,-2.99647 0.4618,3.62147 c 1.6198,12.70053 2.6507,17.04017 5.8653,24.68987 3.5415,8.42776 4.6155,14.55661 2.5507,14.55661 -0.5775,0 -1.7946,-2.39063 -2.7048,-5.3125 -0.9103,-2.92188 -2.6818,-7.84375 -3.9369,-10.9375 -1.255,-3.09375 -3.0231,-10.08884 -3.929,-15.54463 -0.906,-5.45579 -2.2859,-10.13253 -3.0665,-10.39277 -1.8694,-0.62311 -3.3166,7.34815 -2.3974,13.20408 2.6235,16.71202 3.2011,22.37793 3.5586,34.90961 0.2359,8.26802 -0.092,14.18452 -0.7978,14.375 -1.7912,0.48367 -2.9328,-6.84021 -3.0509,-19.57171 -0.129,-13.92479 -1.3616,-25.72958 -2.6864,-25.72958 -0.992,0 -3.3575,6.76939 -6.2166,17.7898 -0.844,3.25314 -1.9543,5.65544 -2.4672,5.33845 -1.1642,-0.71958 1.7335,-13.49975 5.1028,-22.505 1.985,-5.30524 2.2341,-7.33256 1.1502,-9.35786 -2.4286,-4.53798 -3.3093,-2.55124 -6.9196,15.60961 -1.0618,5.34149 -2.6831,15.81839 -4.3523,28.125 -1.7475,12.88386 -0.4768,45.79529 2.044,52.93995 1.9392,5.49662 2.3129,10.70997 0.6358,8.87255 -2.957,-3.23979 -5.2706,-15.16969 -6.5128,-33.58366 -1.4282,-21.16784 -1.3133,-22.73232 3.9288,-53.49807 1.6067,-9.42932 2.5442,-17.52113 2.0835,-17.98182 -0.4606,-0.46068 -2.2347,0.0779 -3.9422,1.19664 -2.4078,1.5776 -4.1224,5.33347 -7.6384,16.73182 -2.4936,8.08368 -5.3179,16.66634 -6.2762,19.07259 -2.448,6.14699 -7.6225,25.448 -9.2177,34.38167 -0.7371,4.12868 -1.9245,9.47243 -2.6385,11.875 -1.6151,5.43444 -3.6415,21.17394 -4.4248,34.36833 -0.701,11.80871 -1.425,14.71155 -2.9617,11.875 -1.4893,-2.74925 0.7269,-29.75254 3.7445,-45.625 1.4379,-7.5625 3.1518,-16.5625 3.8087,-20 1.1986,-6.27204 10.414,-37.40856 15.1035,-51.03118 1.3786,-4.00463 2.1908,-7.59688 1.805,-7.98276 -0.3859,-0.38587 -3.5694,0.3594 -7.0744,1.65618 l -6.3729,2.35776 -9.7682,28.75 c -5.3727,15.8125 -11.2496,32.02019 -13.0598,36.01707 -1.8102,3.99689 -3.878,11.59064 -4.5951,16.875 -1.756,12.94042 -2.2784,15.23293 -3.4715,15.23293 -1.684,0 -0.2513,-13.54904 2.9079,-27.5 5.1932,-22.93313 6.534,-27.96366 9.3283,-35 5.316,-13.38584 10.0779,-27.32883 10.0779,-29.50881 0,-4.58968 -7.3391,4.80646 -14.146,18.11081 -10.9552,21.41247 -22.5644,41.89185 -23.0024,40.57791 -0.5427,-1.62844 15.5333,-35.03537 19.1873,-39.8722 3.5557,-4.70677 7.1476,-13.05771 5.6164,-13.05771 -3.4848,0 -16.3748,15.93849 -19.4928,24.10277 -1.5244,3.99162 -2.9745,5.89723 -4.4875,5.89723 -2.6835,0 -11.3202,21.03102 -13.7317,33.4375 -1.5558,8.00407 -3.6933,10.53106 -3.6933,4.36621 0,-2.79924 3.4881,-16.60382 7.1045,-28.11621 0.3779,-1.20313 0.1924,-2.1875 -0.4122,-2.1875 -1.0839,0 -2.112,1.69004 -5.8937,9.6875 -2.4436,5.16769 -4.5486,5.21147 -4.5486,0.0946 l 0,-3.9679 -3.2194,3.02447 c -1.7706,1.66346 -5.2862,6.82025 -7.8125,11.45953 -2.5262,4.63929 -4.9758,8.43883 -5.4436,8.44343 -0.4679,0.005 -1.046,-1.25726 -1.2849,-2.80414 -0.297,-1.92341 -1.3387,-0.0465 -3.2955,5.9375 -3.865,11.81953 -6.6077,18.125 -7.884,18.125 -1.0052,0 -1.6192,-3.00999 -1.1308,-5.54441 0.1237,-0.64318 -0.105,-2.48659 -0.5093,-4.09646 -0.718,-2.86062 -0.802,-2.87663 -3.7002,-0.70559 -2.1055,1.57724 -3.1993,3.96692 -3.7715,8.24025 -0.6395,4.77627 -1.2464,5.93195 -2.9397,5.59812 -1.693,-0.33381 -2.0468,-1.51207 -1.7136,-5.70628 0.6075,-7.64628 -1.6972,-6.55685 -4.9392,2.33471 -2.6707,7.3247 -5.9985,10.82647 -7.1125,7.48439 -0.7355,-2.20665 -5.635,6.74013 -7.6687,14.00362 -1.8818,6.7214 -3.7987,7.0474 -5.8026,0.98684 l -1.353,-4.09205 -3.9595,6.17036 c -2.1777,3.3937 -3.9595,6.82425 -3.9595,7.62344 0,0.79919 -1.0802,1.45306 -2.4006,1.45306 -1.6554,0 -2.6585,1.17365 -3.231,3.77994 -0.4566,2.07897 -2.1144,5.31335 -3.6839,7.1875 -1.5696,1.87416 -4.3921,6.35824 -6.2722,9.96463 -3.4238,6.567 -6.5475,7.76523 -5.0884,1.95183 1.1997,-4.7805 -1.4295,-2.32915 -4.9469,4.61215 -3.2665,6.44611 -5.388,7.75236 -11.7976,7.26396 -3.4534,-0.26312 -4.8368,0.65184 -10.1575,6.71769 -5.2039,5.93264 -6.816,7.0223 -10.3894,7.0223 -4.6138,0 -9.5823,2.14086 -11.1571,4.80748 -0.5498,0.93089 -1.8764,1.69252 -2.948,1.69252 -1.4625,0 -1.7497,-0.79211 -1.1513,-3.17604 0.7949,-3.16731 0.7868,-3.17068 -2.9684,-1.22883 -2.071,1.07095 -4.6055,3.48455 -5.6322,5.36353 -2.0969,3.83718 -7.6408,10.29134 -8.8399,10.29134 -0.4313,0 -0.4136,-1.6875 0.04,-3.75 1.3829,-6.29594 -1.4102,-4.24561 -5.098,3.74236 -1.9024,4.1208 -3.7836,7.1685 -4.1805,6.77269 -0.3969,-0.39581 -1.2894,-2.73791 -1.9835,-5.20467 -1.656,-5.88569 -4.1585,-6.64513 -5.1736,-1.57002 -0.5035,2.51798 -1.8206,4.34665 -3.6244,5.03247 -2.8013,1.06505 -5.2651,7.42851 -3.7964,9.80503 0.3872,0.62638 -0.086,1.79473 -1.0522,2.59632 -1.3869,1.15097 -1.8815,0.98361 -2.3526,-0.79587 -0.328,-1.23932 -1.3,-4.95293 -2.1599,-8.25248 l -1.5634,-5.99919 -3.6099,3.4585 c -2.8272,2.7087 -3.4498,4.18676 -2.872,6.81769 1.0604,4.82841 -1.735,5.9856 -4.6831,1.93853 l -2.3965,-3.28981 -3.977,2.78673 c -2.1874,1.5327 -6.088,4.61485 -8.6681,6.84922 -4.95,4.28668 -9.2384,5.46196 -7.9819,2.1875 0.4408,-1.14853 -5e-4,-1.875 -1.1389,-1.875 -1.3995,0 -1.7757,1.27885 -1.5232,5.17783 0.4236,6.54567 -2.0076,7.68531 -4.976,2.33243 -2.0634,-3.72073 -2.5043,-3.90583 -7.6878,-3.22706 -6.8106,0.89185 -8.5941,2.31745 -9.5987,7.67286 -1.0924,5.82247 -3.6469,7.76959 -5.7581,4.38895 -2.8132,-4.50446 -3.7935,-2.84293 -2.8943,4.90499 0.697,6.00565 0.5223,7.5 -0.8772,7.5 -0.9613,0 -2.4228,-0.675 -3.2478,-1.5 -2.768,-2.76804 -1.6969,6.10745 1.7155,14.21503 2.796,6.64303 2.9811,7.87408 1.4188,9.43647 -1.5624,1.56239 -2.132,1.37071 -4.3659,-1.46924 -4.6573,-5.92071 -4.5335,-0.79726 0.1995,8.26374 4.4387,8.49744 5.5315,12.304 3.5321,12.304 -0.55,0 -1.7449,-0.70312 -2.6552,-1.5625 -3.0653,-2.89335 -0.334,11.61293 3.681,19.55058 5.0347,9.95397 4.9402,13.38105 -0.2399,8.69318 -2.8684,-2.59586 -3.0486,-0.25741 -0.3031,3.93275 2.326,3.54994 1.2885,6.58222 -1.469,4.29363 -2.7547,-2.28608 -2.2539,2.45248 0.7362,6.96736 1.366,2.0625 2.4873,4.6083 2.4918,5.65733 0,1.04908 2.5395,5.97478 5.6332,10.94608 3.0938,4.9714 5.625,9.8787 5.625,10.9052 0,3.47696 -2.3805,1.8904 -5.7241,-3.8151 -1.8313,-3.1248 -3.5679,-5.4432 -3.859,-5.152 -0.2913,0.2912 0.1442,3.2051 0.9677,6.4754 1.181,4.6898 3.3304,7.82496 10.1735,14.83956 10.1973,10.4525 11.93,13.1238 9.5084,14.6583 -2.4154,1.5306 -4.8165,1.357 -4.8165,-0.3481 0,-0.8021 -0.3227,-1.1356 -0.7171,-0.7412 -0.9669,0.9668 2.5319,7.5716 5.1862,9.7905 1.1738,0.9812 4.1639,2.3641 6.6449,3.0732 2.8145,0.8044 5.0819,2.4789 6.0291,4.4525 1.9609,4.086 7.0233,6.5834 24.0887,11.8837 8.9035,2.7652 11.8138,3.1457 18.125,2.3693 14.8872,-1.8316 34.1193,-0.288 35.3176,2.8346 0.3915,1.0203 -0.1326,2.3278 -1.1648,2.9054 -1.0321,0.5776 -1.9253,2.7642 -1.9848,4.8591 l -0.1088,3.809 17.1159,-0.817 c 14.9414,-0.7133 17.3307,-0.5583 18.8067,1.2201 2.4802,2.9884 0.8712,5.5943 -3.7335,6.0471 -7.8231,0.7692 -5.1335,3.0932 5.285,4.5666 10.6987,1.513 13.6095,2.8729 13.6095,6.3585 0,3.0803 -2.5363,5.0969 -6.4107,5.0969 -4.1775,0 -8.1233,3.4661 -6.1696,5.4196 0.7317,0.7317 1.3303,2.6644 1.3303,4.2948 0,2.7922 -0.3792,2.941 -6.5318,2.5625 -7.1513,-0.44 -7.0949,-0.4966 -12.4482,12.5106 -1.4288,3.472 -2.9171,4.569 -8.9706,6.6126 l -7.2575,2.4502 -8.3334,-3.7383 c -11.8762,-5.3274 -23.2583,-7.8793 -30.8903,-6.9258 -4.844,0.6052 -6.692,0.3469 -7.8958,-1.1035 -1.396,-1.682 -2.157,-1.6279 -6.8095,0.4844 -9.9339,4.51 -24.9454,2.5329 -39.4217,-5.1921 -7.6597,-4.0874 -9.6185,-4.4203 -10.622,-1.8053 -1.0638,2.7723 -10.1973,-0.7515 -17.4218,-6.7214 -3.2199,-2.6607 -9.3796,-6.6254 -13.6882,-8.8104 -6.4072,-3.249 -8.5173,-5.1458 -11.5841,-10.4135 -3.2583,-5.5964 -4.4233,-6.5727 -8.884,-7.4459 -5.9509,-1.1649 -13.9438,-9.4757 -11.4815,-11.938 0.9695,-0.9695 0.3281,-1.5982 -2.2663,-2.2217 -6.9915,-1.6804 -10.6757,-4.2411 -10.294,-7.1547 0.1974,-1.5065 -0.1885,-2.8882 -0.8576,-3.0703 -0.6691,-0.1822 -1.8275,-2.1457 -2.5743,-4.3633 -1.3438,-3.9914 -1.3727,-4.0036 -2.8648,-1.2154 -1.2449,2.3261 -1.9399,2.5853 -3.99,1.4881 -1.3654,-0.7308 -2.0987,-1.9498 -1.6294,-2.7091 0.4816,-0.7792 0.2864,-1.0301 -0.4484,-0.576 -1.62,1.0012 -4.4042,-2.1466 -3.1364,-3.546 0.5097,-0.5626 0.24,-0.6285 -0.5991,-0.1464 -2.7846,1.5996 -9.1249,-2.7915 -9.944,-6.887 -0.9567,-4.7838 -3.0511,-5.6198 -7.2258,-2.8845 -3.1582,2.0694 -3.3798,2.0433 -6.3509,-0.7479 -1.6932,-1.5906 -3.0785,-3.4624 -3.0785,-4.1593 0,-0.697 -1.2657,-3.1366 -2.8125,-5.4213 -2.3632,-3.4903 -3.3608,-4.0362 -6.2438,-3.4169 -2.8834,0.6194 -3.6317,0.2096 -4.6875,-2.5672 -0.6909,-1.8174 -1.2562,-4.9807 -1.2562,-7.0296 0,-3.5407 -0.2053,-3.6868 -4.1427,-2.9481 -2.8526,0.5351 -4.6067,0.218 -5.633,-1.0185 -0.8232,-0.9921 -2.7794,-1.54926 -4.3708,-1.245 -1.6433,0.3141 -3.5584,-0.26596 -4.4584,-1.35056 -0.8679,-1.0457 -2.4266,-1.5755 -3.4642,-1.1774 -1.5821,0.6071 -1.7488,-0.1909 -1.0351,-4.9509 0.468,-3.121 0.4908,-6.8096 0.05,-8.1969 -0.7281,-2.2942 -1.0972,-2.3683 -4.082,-0.8198 -1.8049,0.9364 -4.5736,3.2815 -6.153,5.2113 l -2.8714,3.5089 -0.064,-6.25 c -0.126,-12.28537 -4.236,-12.37448 -10.6509,-0.2309 -4.1142,7.7883 -6.2901,9.2297 -4.9887,3.3047 0.5011,-2.2818 0.249,-4.5072 -0.6309,-5.5674 -1.1015,-1.3271 -1.129,-3.9372 -0.1112,-10.50071 0.7453,-4.80402 1.3318,-10.31434 1.3032,-12.24513 l -0.053,-3.51057 -4.3917,4.97544 c -4.5987,5.20967 -8.3248,12.55593 -10.5385,20.77727 -0.7217,2.6798 -1.8528,4.8723 -2.5138,4.8723 -1.8335,0 -1.4852,-2.4983 2.0276,-14.54767 3.7027,-12.69748 5.2853,-24.20235 3.33,-24.20235 -0.7101,0 -1.6527,0.94241 -2.0947,2.09425 -1.2315,3.20899 -7.4873,12.80861 -8.3806,12.86011 -1.7134,0.0987 -2.1563,-5.66557 -0.6185,-8.05133 1.6582,-2.57287 5.7852,-13.94822 5.7852,-15.94637 0,-2.27849 -7.9966,3.67019 -13.417,9.98084 -6.2968,7.33099 -10.1642,8.9928 -7.2729,3.125 5.8792,-11.93067 6.978,-17.05075 3.9119,-18.2273 -1.0881,-0.41757 -1.5165,-1.68186 -1.1041,-3.25874 0.3705,-1.41705 0.3727,-2.57646 0,-2.57646 -1.2759,0 -5.8728,8.43215 -5.8728,10.77254 -1e-4,3.23841 -8.5128,9.9646 -10.3219,8.15559 -1.3993,-1.39938 0.3124,-9.26918 3.1655,-14.55313 0.7424,-1.375 2.0903,-3.90625 2.9954,-5.625 0.9051,-1.71875 1.6491,-4.95312 1.6533,-7.1875 0.017,-9.14299 -7.4377,-1.31935 -10.325,10.83548 -1.7772,7.4816 -3.8845,7.66402 -4.4234,0.38295 -0.2648,-3.57643 -0.8719,-4.96148 -1.9873,-4.53347 -3.1442,1.20658 -4.4097,-2.309 -2.886,-8.01751 1.1918,-4.46535 1.1236,-5.56095 -0.4067,-6.52874 -2.4992,-1.58055 -10.8753,-1.51025 -11.8703,0.0996 -0.4422,0.71546 -1.8026,0.98389 -3.0232,0.59649 -1.5032,-0.47709 -3.8407,0.91712 -7.2445,4.32087 -4.2587,4.25879 -5.2552,4.74811 -6.5331,3.20826 -0.8294,-0.99932 -1.1574,-2.54472 -0.7288,-3.43422 0.4286,-0.88949 0.055,-0.57194 -0.8299,0.70566 -4.5668,6.59271 -6.4523,8.38077 -8.4839,8.04536 -2.2471,-0.37098 -7.5002,3.46526 -7.5002,5.47726 0,0.59569 -1.4967,3.34482 -3.3261,6.10919 -3.6746,5.55269 -6.7772,6.02755 -7.9142,1.21126 -0.69,-2.92286 -0.9186,-2.78396 -4.7423,2.88173 -2.2096,3.27394 -4.0174,6.41804 -4.0174,6.9869 0,0.56885 -0.8437,1.73453 -1.875,2.59039 -1.0312,0.85586 -1.875,2.91477 -1.875,4.57536 0,2.532 -0.5416,2.96119 -3.3561,2.65945 -3.5243,-0.37785 -3.9742,0.19231 -8.4087,10.65643 -1.6502,3.89412 -2.4853,4.61849 -4.5637,3.95883 -4.4135,-1.4008 -8.4113,2.48158 -10.6521,10.34479 -3.0611,10.7417 -5.1088,11.6274 -4.3183,1.8676 0.1352,-1.6684 -0.4741,-2.8125 -1.4977,-2.8125 -3.4575,0 -5.9804,3.2683 -7.5036,9.7202 -1.4604,6.1863 -1.7582,6.5509 -4.8042,5.8819 -3.9733,-0.8727 -5.7432,1.0233 -7.114,7.62076 -0.9319,4.4853 -1.3631,4.9021 -5.0706,4.9021 -4.1913,0 -6.6963,2.3073 -5.6018,5.1595 0.3453,0.9 -0.402,4.326 -1.6606,7.6134 -2.2722,5.9344 -2.2936,5.9503 -2.9883,2.2271 -0.6252,-3.3503 -1.0662,-2.6653 -4.1377,6.4276 -2.1081,6.2405 -3.1395,11.3665 -2.6665,13.2512 0.4243,1.6906 0.133,6.595 -0.6474,10.8987 l -1.419,7.8249 4.3298,6.185 c 4.9284,7.0402 26.7659,22.2174 32.0805,22.2963 1.7188,0.025 5.5771,1.1589 8.574,2.5188 3.151,1.4298 8.1591,2.4761 11.875,2.4808 4.2504,0 7.6712,0.829 10.1036,2.4325 4.1349,2.7257 9.4313,10.7276 9.441,14.2637 0,1.9848 -0.5945,2.1927 -4.0561,1.4054 -6.1232,-1.3926 -16.5364,-1.0462 -19.7166,0.6558 l -2.8208,1.5096 3.9367,2.4926 c 2.8266,1.7897 5.4312,2.35 9.237,1.9871 6.6641,-0.6355 12.6288,2.5579 18.9828,10.1632 3.6472,4.3654 4.438,6.1835 3.7982,8.7325 -1.1124,4.4322 -1.2007,4.4654 -6.8823,2.5903 -4.6474,-1.5338 -5.4511,-1.4369 -10.3187,1.2434 -6.8969,3.7977 -6.7046,3.5295 -3.966,5.532 2.3354,1.7077 2.3325,1.8312 -0.1491,6.5436 -3.0746,5.8386 -5.4865,6.4776 -10.4891,2.7791 -4.1496,-3.0679 -5.818,-2.4125 -6.5062,2.5559 -0.5416,3.9096 -6.5434,6.1326 -16.9009,6.26 -7.7204,0.095 -7.7368,0.088 -10.4719,-4.779 -3.3609,-5.9799 -8.2361,-9.0569 -10.0105,-6.3181 -0.6475,0.9994 -1.0328,3.1958 -0.8562,4.8808 0.2787,2.6585 -0.34,3.195 -4.6789,4.0571 -2.75,0.5465 -6.1671,1.2632 -7.5936,1.5928 -1.4265,0.3296 -3.114,0.1024 -3.75,-0.5048 z m 157.7238,-858.49515 c -1.2706,-1.27064 -2.319,0.64236 -1.2765,2.32922 0.7875,1.27428 1.082,1.27526 1.5054,0.005 0.2895,-0.86849 0.1865,-1.91891 -0.2289,-2.33427 z m 508.2384,112.78646 c 0.025,-2.0625 0.3057,-2.75492 0.6227,-1.53871 0.3168,1.21621 0.2961,2.90371 -0.046,3.75 -0.3424,0.84628 -0.6016,-0.14879 -0.5763,-2.21129 z" id="path7740" inkscape:connector-curvature="0"/>
</svg>